<svg width="29" height="29" viewBox="0 0 29 29" fill="none" xmlns="http://www.w3.org/2000/svg">
<path d="M21.2534 4.64C21.5757 4.31784 21.9582 4.06231 22.3793 3.888C22.8003 3.7137 23.2515 3.62402 23.7072 3.62411C24.1629 3.62419 24.6141 3.71403 25.0351 3.88849C25.4561 4.06296 25.8386 4.31863 26.1607 4.64091C26.4829 4.96319 26.7384 5.34577 26.9127 5.7668C27.087 6.18783 27.1767 6.63908 27.1766 7.09477C27.1765 7.55046 27.0867 8.00167 26.9122 8.42263C26.7378 8.8436 26.4821 9.22609 26.1598 9.54825L21.3748 14.3333C20.8398 14.8683 20.1793 15.2609 19.4536 15.4751L16.7964 16.2581C16.4843 16.3499 16.1532 16.356 15.8379 16.2758C15.5225 16.1955 15.2346 16.0318 15.0044 15.802C14.7741 15.5721 14.61 15.2844 14.5292 14.9692C14.4484 14.654 14.454 14.3229 14.5453 14.0106L15.3247 11.3517C15.5391 10.6237 15.933 9.96116 16.4702 9.425L21.2534 4.64ZM24.8784 5.92325C24.7245 5.76931 24.5419 5.64719 24.3408 5.56387C24.1397 5.48055 23.9242 5.43767 23.7066 5.43767C23.489 5.43767 23.2734 5.48055 23.0724 5.56387C22.8713 5.64719 22.6887 5.76931 22.5348 5.92325L17.7498 10.7064C17.4283 11.0285 17.1927 11.4261 17.0647 11.8628L16.2853 14.5199L18.9388 13.7369C19.3738 13.6083 19.7726 13.3726 20.0916 13.0518L24.8766 8.26681C25.0305 8.11297 25.1526 7.9303 25.2359 7.72924C25.3193 7.52818 25.3621 7.31267 25.3621 7.09503C25.3621 6.87739 25.3193 6.66189 25.2359 6.46083C25.1526 6.25977 25.0323 6.0771 24.8784 5.92325ZM17.893 5.4375H6.34375C5.14199 5.4375 3.98945 5.9149 3.13967 6.76467C2.2899 7.61445 1.8125 8.76699 1.8125 9.96875V19.0313C1.8125 20.233 2.2899 21.3856 3.13967 22.2353C3.98945 23.0851 5.14199 23.5625 6.34375 23.5625H22.6562C23.858 23.5625 25.0106 23.0851 25.8603 22.2353C26.7101 21.3856 27.1875 20.233 27.1875 19.0313V11.0834L25.375 12.8959V19.0313C25.375 19.7523 25.0886 20.4438 24.5787 20.9537C24.0688 21.4636 23.3773 21.75 22.6562 21.75H6.34375C5.62269 21.75 4.93117 21.4636 4.4213 20.9537C3.91144 20.4438 3.625 19.7523 3.625 19.0313V13.1805C4.63094 12.3594 5.78188 11.6145 6.79506 11.2393C7.35694 11.0291 7.80463 10.962 8.12725 11.0001C8.41181 11.0345 8.60756 11.1451 8.76163 11.3771C8.99 11.7196 8.99 11.9933 8.84319 12.3504C8.66556 12.7854 8.29944 13.2512 7.80463 13.8548L7.743 13.9327C7.30256 14.4674 6.76787 15.1199 6.44525 15.8231C6.08094 16.6134 5.94681 17.545 6.43981 18.531C7.20106 20.0571 8.91931 20.2203 10.2733 19.9593C11.7665 19.6501 13.1408 18.9221 14.2354 17.8604C14.3196 17.7761 14.3865 17.6761 14.4321 17.566C14.4777 17.4559 14.5011 17.3379 14.5011 17.2188C14.5011 17.0996 14.4777 16.9816 14.4321 16.8715C14.3865 16.7614 14.3196 16.6614 14.2354 16.5771C14.1511 16.4929 14.0511 16.426 13.941 16.3804C13.8309 16.3348 13.7129 16.3114 13.5938 16.3114C13.4746 16.3114 13.3566 16.3348 13.2465 16.3804C13.1364 16.426 13.0364 16.4929 12.9521 16.5771C12.1764 17.3547 10.9946 17.9728 9.92888 18.1794C8.80513 18.3969 8.25412 18.1069 8.062 17.719C7.8735 17.3456 7.89344 17.0085 8.091 16.5808C8.31213 16.0986 8.71087 15.6111 9.2075 15.0039L9.22563 14.9821C9.67513 14.4348 10.2243 13.7623 10.5216 13.0373C10.8551 12.2217 10.8859 11.2973 10.2696 10.3729C10.0558 10.0457 9.77151 9.77058 9.43748 9.56765C9.10345 9.36473 8.72821 9.23919 8.33931 9.20025C7.61975 9.11506 6.86394 9.28 6.16431 9.53919C5.31425 9.85456 4.43881 10.3512 3.625 10.9131V9.96875C3.625 9.61172 3.69532 9.25818 3.83195 8.92833C3.96858 8.59848 4.16884 8.29876 4.4213 8.0463C4.67376 7.79384 4.97348 7.59358 5.30333 7.45695C5.63318 7.32032 5.98672 7.25 6.34375 7.25H16.0805L17.893 5.4375Z" fill="#B47D7D"/>
</svg>
