<svg width="25" height="23" viewBox="0 0 25 23" fill="none" xmlns="http://www.w3.org/2000/svg">
<path d="M4 9V21.1746C4 21.3935 4.08141 21.6035 4.22633 21.7582C4.37124 21.913 4.56779 22 4.77273 22H9.40909V14.9841C9.40909 14.6558 9.53121 14.3409 9.74858 14.1087C9.96595 13.8765 10.2608 13.746 10.5682 13.746H14.4318C14.7392 13.746 15.034 13.8765 15.2514 14.1087C15.4688 14.3409 15.5909 14.6558 15.5909 14.9841V22H20.2273C20.4322 22 20.6288 21.913 20.7737 21.7582C20.9186 21.6035 21 21.3935 21 21.1746V9" stroke="#B47D7D" stroke-width="1.5" stroke-linecap="round" stroke-linejoin="round"/>
<path d="M24 11L13.0591 1.19148C12.8024 0.937616 12.2022 0.934732 11.9409 1.19148L1 11M19.8929 7.29777V1.76846H17.4286V5.08604" stroke="#B47D7D" stroke-width="1.5" stroke-linecap="round" stroke-linejoin="round"/>
</svg>
