<svg width="24" height="24" viewBox="0 0 24 24" fill="none" xmlns="http://www.w3.org/2000/svg">
<path d="M8 17.01L8.01 16.999M8 5H3.6C3.44087 5 3.28826 5.06321 3.17574 5.17574C3.06321 5.28826 3 5.44087 3 5.6V20.4C3 20.5591 3.06321 20.7117 3.17574 20.8243C3.28826 20.9368 3.44087 21 3.6 21H12.4C12.5591 21 12.7117 20.9368 12.8243 20.8243C12.9368 20.7117 13 20.5591 13 20.4V16M16 3V13M13 5V11M22 7V9M10 7V9M19 4V12" stroke="#B47D7D" stroke-width="1.5" stroke-linecap="round" stroke-linejoin="round"/>
</svg>
